G04 #@! TF.FileFunction,Copper,L1,Top,Signal*
%FSLAX46Y46*%
G04 Gerber Fmt 4.6, Leading zero omitted, Abs format (unit mm)*
G04 Created by KiCad (PCBNEW 4.0.5) date 05/24/17 23:32:45*
%MOMM*%
%LPD*%
G01*
G04 APERTURE LIST*
%ADD10C,0.100000*%
%ADD11C,2.000000*%
%ADD12C,2.400000*%
%ADD13O,1.300000X1.800000*%
%ADD14C,1.300000*%
%ADD15C,1.600000*%
%ADD16O,1.600000X1.600000*%
%ADD17C,1.400000*%
%ADD18O,1.400000X1.400000*%
%ADD19C,0.250000*%
%ADD20C,0.254000*%
G04 APERTURE END LIST*
D10*
D11*
X151130000Y-107950000D03*
X151130000Y-100450000D03*
X177800000Y-99060000D03*
X177800000Y-109060000D03*
D12*
X151570000Y-138430000D03*
X179070000Y-138430000D03*
D13*
X165100000Y-128270000D03*
D10*
G36*
X164006777Y-130636016D02*
X162733984Y-129363223D01*
X163653223Y-128443984D01*
X164926016Y-129716777D01*
X164006777Y-130636016D01*
X164006777Y-130636016D01*
G37*
D14*
X166193223Y-129716777D02*
X166546777Y-129363223D01*
D15*
X165100000Y-110490000D03*
D16*
X165100000Y-107950000D03*
D17*
X165100000Y-114300000D03*
D18*
X165100000Y-119380000D03*
D15*
X151130000Y-115570000D03*
D16*
X151130000Y-125730000D03*
D15*
X179070000Y-115570000D03*
D16*
X179070000Y-130810000D03*
D19*
X165100000Y-128270000D02*
X164200000Y-128270000D01*
X151929999Y-116369999D02*
X151130000Y-115570000D01*
X164200000Y-128270000D02*
X152299999Y-116369999D01*
X152299999Y-116369999D02*
X151929999Y-116369999D01*
X165100000Y-107950000D02*
X158750000Y-107950000D01*
X158750000Y-107950000D02*
X151130000Y-115570000D01*
X165100000Y-107950000D02*
X151130000Y-107950000D01*
X163830000Y-129540000D02*
X162810761Y-129540000D01*
X165799999Y-118680001D02*
X165100000Y-119380000D01*
X162810761Y-129540000D02*
X149804999Y-116534238D01*
X149804999Y-116534238D02*
X149804999Y-107313999D01*
X149804999Y-107313999D02*
X150493999Y-106624999D01*
X166225001Y-107409999D02*
X166225001Y-118254999D01*
X150493999Y-106624999D02*
X165440001Y-106624999D01*
X166225001Y-118254999D02*
X165799999Y-118680001D01*
X165440001Y-106624999D02*
X166225001Y-107409999D01*
X177800000Y-109060000D02*
X175420000Y-109060000D01*
X175420000Y-109060000D02*
X165100000Y-119380000D01*
X179070000Y-115570000D02*
X179070000Y-116840000D01*
X179070000Y-116840000D02*
X166370000Y-129540000D01*
X151570000Y-138430000D02*
X157480000Y-138430000D01*
X157480000Y-138430000D02*
X166370000Y-129540000D01*
X149860000Y-139700000D02*
X149860000Y-127000000D01*
X150115001Y-139955001D02*
X149860000Y-139700000D01*
X180340000Y-138430000D02*
X178814999Y-139955001D01*
X178814999Y-139955001D02*
X150115001Y-139955001D01*
X180340000Y-133350000D02*
X180340000Y-138430000D01*
X179070000Y-132080000D02*
X180340000Y-133350000D01*
X179070000Y-130810000D02*
X179070000Y-132080000D01*
X149860000Y-127000000D02*
X151130000Y-125730000D01*
X179070000Y-138430000D02*
X179070000Y-130810000D01*
X165100000Y-114300000D02*
X165100000Y-110490000D01*
D20*
G36*
X182170000Y-144070000D02*
X146760000Y-144070000D01*
X146760000Y-126079041D01*
X149738086Y-126079041D01*
X149977611Y-126585134D01*
X150392577Y-126961041D01*
X150780961Y-127121904D01*
X151003000Y-126999915D01*
X151003000Y-125857000D01*
X151257000Y-125857000D01*
X151257000Y-126999915D01*
X151479039Y-127121904D01*
X151867423Y-126961041D01*
X152282389Y-126585134D01*
X152521914Y-126079041D01*
X152400629Y-125857000D01*
X151257000Y-125857000D01*
X151003000Y-125857000D01*
X149859371Y-125857000D01*
X149738086Y-126079041D01*
X146760000Y-126079041D01*
X146760000Y-125380959D01*
X149738086Y-125380959D01*
X149859371Y-125603000D01*
X151003000Y-125603000D01*
X151003000Y-124460085D01*
X151257000Y-124460085D01*
X151257000Y-125603000D01*
X152400629Y-125603000D01*
X152521914Y-125380959D01*
X152282389Y-124874866D01*
X151867423Y-124498959D01*
X151479039Y-124338096D01*
X151257000Y-124460085D01*
X151003000Y-124460085D01*
X150780961Y-124338096D01*
X150392577Y-124498959D01*
X149977611Y-124874866D01*
X149738086Y-125380959D01*
X146760000Y-125380959D01*
X146760000Y-107313999D01*
X149044999Y-107313999D01*
X149044999Y-116534238D01*
X149102851Y-116825077D01*
X149267598Y-117071639D01*
X162273360Y-130077401D01*
X162519922Y-130242148D01*
X162741333Y-130286190D01*
X163548968Y-131093825D01*
X163663272Y-131171926D01*
X157165198Y-137670000D01*
X153241448Y-137670000D01*
X153126545Y-137391914D01*
X152610801Y-136875270D01*
X151936605Y-136595319D01*
X151206597Y-136594682D01*
X150531914Y-136873455D01*
X150015270Y-137389199D01*
X149735319Y-138063395D01*
X149734682Y-138793403D01*
X150013455Y-139468086D01*
X150529199Y-139984730D01*
X151203395Y-140264681D01*
X151933403Y-140265318D01*
X152608086Y-139986545D01*
X152867908Y-139727175D01*
X177952430Y-139727175D01*
X178075565Y-140014788D01*
X178757734Y-140274707D01*
X179487443Y-140253786D01*
X180064435Y-140014788D01*
X180187570Y-139727175D01*
X179070000Y-138609605D01*
X177952430Y-139727175D01*
X152867908Y-139727175D01*
X153124730Y-139470801D01*
X153241329Y-139190000D01*
X157480000Y-139190000D01*
X157770839Y-139132148D01*
X158017401Y-138967401D01*
X158867068Y-138117734D01*
X177225293Y-138117734D01*
X177246214Y-138847443D01*
X177485212Y-139424435D01*
X177772825Y-139547570D01*
X178890395Y-138430000D01*
X179249605Y-138430000D01*
X180367175Y-139547570D01*
X180654788Y-139424435D01*
X180914707Y-138742266D01*
X180893786Y-138012557D01*
X180654788Y-137435565D01*
X180367175Y-137312430D01*
X179249605Y-138430000D01*
X178890395Y-138430000D01*
X177772825Y-137312430D01*
X177485212Y-137435565D01*
X177225293Y-138117734D01*
X158867068Y-138117734D01*
X159851977Y-137132825D01*
X177952430Y-137132825D01*
X179070000Y-138250395D01*
X180187570Y-137132825D01*
X180064435Y-136845212D01*
X179382266Y-136585293D01*
X178652557Y-136606214D01*
X178075565Y-136845212D01*
X177952430Y-137132825D01*
X159851977Y-137132825D01*
X165825761Y-131159041D01*
X177678086Y-131159041D01*
X177917611Y-131665134D01*
X178332577Y-132041041D01*
X178720961Y-132201904D01*
X178943000Y-132079915D01*
X178943000Y-130937000D01*
X179197000Y-130937000D01*
X179197000Y-132079915D01*
X179419039Y-132201904D01*
X179807423Y-132041041D01*
X180222389Y-131665134D01*
X180461914Y-131159041D01*
X180340629Y-130937000D01*
X179197000Y-130937000D01*
X178943000Y-130937000D01*
X177799371Y-130937000D01*
X177678086Y-131159041D01*
X165825761Y-131159041D01*
X165996635Y-130988167D01*
X166171959Y-131023041D01*
X166663707Y-130925226D01*
X167080591Y-130646673D01*
X167266305Y-130460959D01*
X177678086Y-130460959D01*
X177799371Y-130683000D01*
X178943000Y-130683000D01*
X178943000Y-129540085D01*
X179197000Y-129540085D01*
X179197000Y-130683000D01*
X180340629Y-130683000D01*
X180461914Y-130460959D01*
X180222389Y-129954866D01*
X179807423Y-129578959D01*
X179419039Y-129418096D01*
X179197000Y-129540085D01*
X178943000Y-129540085D01*
X178720961Y-129418096D01*
X178332577Y-129578959D01*
X177917611Y-129954866D01*
X177678086Y-130460959D01*
X167266305Y-130460959D01*
X167476674Y-130250591D01*
X167755226Y-129833707D01*
X167853041Y-129341959D01*
X167818167Y-129166635D01*
X179607401Y-117377401D01*
X179772148Y-117130840D01*
X179830000Y-116840000D01*
X179830000Y-116808646D01*
X179881800Y-116787243D01*
X180285824Y-116383923D01*
X180504750Y-115856691D01*
X180505248Y-115285813D01*
X180287243Y-114758200D01*
X179883923Y-114354176D01*
X179356691Y-114135250D01*
X178785813Y-114134752D01*
X178258200Y-114352757D01*
X177854176Y-114756077D01*
X177635250Y-115283309D01*
X177634752Y-115854187D01*
X177852757Y-116381800D01*
X178152816Y-116682382D01*
X166743365Y-128091833D01*
X166568041Y-128056959D01*
X166385000Y-128093368D01*
X166385000Y-127989928D01*
X166287185Y-127498180D01*
X166008632Y-127081296D01*
X165591748Y-126802743D01*
X165100000Y-126704928D01*
X164608252Y-126802743D01*
X164191368Y-127081296D01*
X164149203Y-127144401D01*
X152837400Y-115832598D01*
X152590838Y-115667851D01*
X152564919Y-115662695D01*
X152565248Y-115285813D01*
X152542951Y-115231851D01*
X159064802Y-108710000D01*
X163896333Y-108710000D01*
X164085302Y-108992811D01*
X164421710Y-109217592D01*
X164288200Y-109272757D01*
X163884176Y-109676077D01*
X163665250Y-110203309D01*
X163664752Y-110774187D01*
X163882757Y-111301800D01*
X164286077Y-111705824D01*
X164340000Y-111728215D01*
X164340000Y-113172345D01*
X163968902Y-113542796D01*
X163765232Y-114033287D01*
X163764769Y-114564383D01*
X163967582Y-115055229D01*
X164342796Y-115431098D01*
X164833287Y-115634768D01*
X165364383Y-115635231D01*
X165465001Y-115593657D01*
X165465001Y-117940197D01*
X165338843Y-118066355D01*
X165100000Y-118018846D01*
X164589118Y-118120467D01*
X164156012Y-118409858D01*
X163866621Y-118842964D01*
X163765000Y-119353846D01*
X163765000Y-119406154D01*
X163866621Y-119917036D01*
X164156012Y-120350142D01*
X164589118Y-120639533D01*
X165100000Y-120741154D01*
X165610882Y-120639533D01*
X166043988Y-120350142D01*
X166333379Y-119917036D01*
X166435000Y-119406154D01*
X166435000Y-119353846D01*
X166396170Y-119158632D01*
X175734802Y-109820000D01*
X176344953Y-109820000D01*
X176413106Y-109984943D01*
X176872637Y-110445278D01*
X177473352Y-110694716D01*
X178123795Y-110695284D01*
X178724943Y-110446894D01*
X179185278Y-109987363D01*
X179434716Y-109386648D01*
X179435284Y-108736205D01*
X179186894Y-108135057D01*
X178727363Y-107674722D01*
X178126648Y-107425284D01*
X177476205Y-107424716D01*
X176875057Y-107673106D01*
X176414722Y-108132637D01*
X176345227Y-108300000D01*
X175420000Y-108300000D01*
X175129161Y-108357852D01*
X174882599Y-108522599D01*
X166985001Y-116420197D01*
X166985001Y-107409999D01*
X166927149Y-107119160D01*
X166762402Y-106872598D01*
X165977402Y-106087598D01*
X165730840Y-105922851D01*
X165440001Y-105864999D01*
X150493999Y-105864999D01*
X150203160Y-105922851D01*
X149956598Y-106087598D01*
X149267598Y-106776598D01*
X149102851Y-107023160D01*
X149044999Y-107313999D01*
X146760000Y-107313999D01*
X146760000Y-100773795D01*
X149494716Y-100773795D01*
X149743106Y-101374943D01*
X150202637Y-101835278D01*
X150803352Y-102084716D01*
X151453795Y-102085284D01*
X152054943Y-101836894D01*
X152515278Y-101377363D01*
X152764716Y-100776648D01*
X152765284Y-100126205D01*
X152516894Y-99525057D01*
X152375879Y-99383795D01*
X176164716Y-99383795D01*
X176413106Y-99984943D01*
X176872637Y-100445278D01*
X177473352Y-100694716D01*
X178123795Y-100695284D01*
X178724943Y-100446894D01*
X179185278Y-99987363D01*
X179434716Y-99386648D01*
X179435284Y-98736205D01*
X179186894Y-98135057D01*
X178727363Y-97674722D01*
X178126648Y-97425284D01*
X177476205Y-97424716D01*
X176875057Y-97673106D01*
X176414722Y-98132637D01*
X176165284Y-98733352D01*
X176164716Y-99383795D01*
X152375879Y-99383795D01*
X152057363Y-99064722D01*
X151456648Y-98815284D01*
X150806205Y-98814716D01*
X150205057Y-99063106D01*
X149744722Y-99522637D01*
X149495284Y-100123352D01*
X149494716Y-100773795D01*
X146760000Y-100773795D01*
X146760000Y-95960000D01*
X182170000Y-95960000D01*
X182170000Y-144070000D01*
X182170000Y-144070000D01*
G37*
X182170000Y-144070000D02*
X146760000Y-144070000D01*
X146760000Y-126079041D01*
X149738086Y-126079041D01*
X149977611Y-126585134D01*
X150392577Y-126961041D01*
X150780961Y-127121904D01*
X151003000Y-126999915D01*
X151003000Y-125857000D01*
X151257000Y-125857000D01*
X151257000Y-126999915D01*
X151479039Y-127121904D01*
X151867423Y-126961041D01*
X152282389Y-126585134D01*
X152521914Y-126079041D01*
X152400629Y-125857000D01*
X151257000Y-125857000D01*
X151003000Y-125857000D01*
X149859371Y-125857000D01*
X149738086Y-126079041D01*
X146760000Y-126079041D01*
X146760000Y-125380959D01*
X149738086Y-125380959D01*
X149859371Y-125603000D01*
X151003000Y-125603000D01*
X151003000Y-124460085D01*
X151257000Y-124460085D01*
X151257000Y-125603000D01*
X152400629Y-125603000D01*
X152521914Y-125380959D01*
X152282389Y-124874866D01*
X151867423Y-124498959D01*
X151479039Y-124338096D01*
X151257000Y-124460085D01*
X151003000Y-124460085D01*
X150780961Y-124338096D01*
X150392577Y-124498959D01*
X149977611Y-124874866D01*
X149738086Y-125380959D01*
X146760000Y-125380959D01*
X146760000Y-107313999D01*
X149044999Y-107313999D01*
X149044999Y-116534238D01*
X149102851Y-116825077D01*
X149267598Y-117071639D01*
X162273360Y-130077401D01*
X162519922Y-130242148D01*
X162741333Y-130286190D01*
X163548968Y-131093825D01*
X163663272Y-131171926D01*
X157165198Y-137670000D01*
X153241448Y-137670000D01*
X153126545Y-137391914D01*
X152610801Y-136875270D01*
X151936605Y-136595319D01*
X151206597Y-136594682D01*
X150531914Y-136873455D01*
X150015270Y-137389199D01*
X149735319Y-138063395D01*
X149734682Y-138793403D01*
X150013455Y-139468086D01*
X150529199Y-139984730D01*
X151203395Y-140264681D01*
X151933403Y-140265318D01*
X152608086Y-139986545D01*
X152867908Y-139727175D01*
X177952430Y-139727175D01*
X178075565Y-140014788D01*
X178757734Y-140274707D01*
X179487443Y-140253786D01*
X180064435Y-140014788D01*
X180187570Y-139727175D01*
X179070000Y-138609605D01*
X177952430Y-139727175D01*
X152867908Y-139727175D01*
X153124730Y-139470801D01*
X153241329Y-139190000D01*
X157480000Y-139190000D01*
X157770839Y-139132148D01*
X158017401Y-138967401D01*
X158867068Y-138117734D01*
X177225293Y-138117734D01*
X177246214Y-138847443D01*
X177485212Y-139424435D01*
X177772825Y-139547570D01*
X178890395Y-138430000D01*
X179249605Y-138430000D01*
X180367175Y-139547570D01*
X180654788Y-139424435D01*
X180914707Y-138742266D01*
X180893786Y-138012557D01*
X180654788Y-137435565D01*
X180367175Y-137312430D01*
X179249605Y-138430000D01*
X178890395Y-138430000D01*
X177772825Y-137312430D01*
X177485212Y-137435565D01*
X177225293Y-138117734D01*
X158867068Y-138117734D01*
X159851977Y-137132825D01*
X177952430Y-137132825D01*
X179070000Y-138250395D01*
X180187570Y-137132825D01*
X180064435Y-136845212D01*
X179382266Y-136585293D01*
X178652557Y-136606214D01*
X178075565Y-136845212D01*
X177952430Y-137132825D01*
X159851977Y-137132825D01*
X165825761Y-131159041D01*
X177678086Y-131159041D01*
X177917611Y-131665134D01*
X178332577Y-132041041D01*
X178720961Y-132201904D01*
X178943000Y-132079915D01*
X178943000Y-130937000D01*
X179197000Y-130937000D01*
X179197000Y-132079915D01*
X179419039Y-132201904D01*
X179807423Y-132041041D01*
X180222389Y-131665134D01*
X180461914Y-131159041D01*
X180340629Y-130937000D01*
X179197000Y-130937000D01*
X178943000Y-130937000D01*
X177799371Y-130937000D01*
X177678086Y-131159041D01*
X165825761Y-131159041D01*
X165996635Y-130988167D01*
X166171959Y-131023041D01*
X166663707Y-130925226D01*
X167080591Y-130646673D01*
X167266305Y-130460959D01*
X177678086Y-130460959D01*
X177799371Y-130683000D01*
X178943000Y-130683000D01*
X178943000Y-129540085D01*
X179197000Y-129540085D01*
X179197000Y-130683000D01*
X180340629Y-130683000D01*
X180461914Y-130460959D01*
X180222389Y-129954866D01*
X179807423Y-129578959D01*
X179419039Y-129418096D01*
X179197000Y-129540085D01*
X178943000Y-129540085D01*
X178720961Y-129418096D01*
X178332577Y-129578959D01*
X177917611Y-129954866D01*
X177678086Y-130460959D01*
X167266305Y-130460959D01*
X167476674Y-130250591D01*
X167755226Y-129833707D01*
X167853041Y-129341959D01*
X167818167Y-129166635D01*
X179607401Y-117377401D01*
X179772148Y-117130840D01*
X179830000Y-116840000D01*
X179830000Y-116808646D01*
X179881800Y-116787243D01*
X180285824Y-116383923D01*
X180504750Y-115856691D01*
X180505248Y-115285813D01*
X180287243Y-114758200D01*
X179883923Y-114354176D01*
X179356691Y-114135250D01*
X178785813Y-114134752D01*
X178258200Y-114352757D01*
X177854176Y-114756077D01*
X177635250Y-115283309D01*
X177634752Y-115854187D01*
X177852757Y-116381800D01*
X178152816Y-116682382D01*
X166743365Y-128091833D01*
X166568041Y-128056959D01*
X166385000Y-128093368D01*
X166385000Y-127989928D01*
X166287185Y-127498180D01*
X166008632Y-127081296D01*
X165591748Y-126802743D01*
X165100000Y-126704928D01*
X164608252Y-126802743D01*
X164191368Y-127081296D01*
X164149203Y-127144401D01*
X152837400Y-115832598D01*
X152590838Y-115667851D01*
X152564919Y-115662695D01*
X152565248Y-115285813D01*
X152542951Y-115231851D01*
X159064802Y-108710000D01*
X163896333Y-108710000D01*
X164085302Y-108992811D01*
X164421710Y-109217592D01*
X164288200Y-109272757D01*
X163884176Y-109676077D01*
X163665250Y-110203309D01*
X163664752Y-110774187D01*
X163882757Y-111301800D01*
X164286077Y-111705824D01*
X164340000Y-111728215D01*
X164340000Y-113172345D01*
X163968902Y-113542796D01*
X163765232Y-114033287D01*
X163764769Y-114564383D01*
X163967582Y-115055229D01*
X164342796Y-115431098D01*
X164833287Y-115634768D01*
X165364383Y-115635231D01*
X165465001Y-115593657D01*
X165465001Y-117940197D01*
X165338843Y-118066355D01*
X165100000Y-118018846D01*
X164589118Y-118120467D01*
X164156012Y-118409858D01*
X163866621Y-118842964D01*
X163765000Y-119353846D01*
X163765000Y-119406154D01*
X163866621Y-119917036D01*
X164156012Y-120350142D01*
X164589118Y-120639533D01*
X165100000Y-120741154D01*
X165610882Y-120639533D01*
X166043988Y-120350142D01*
X166333379Y-119917036D01*
X166435000Y-119406154D01*
X166435000Y-119353846D01*
X166396170Y-119158632D01*
X175734802Y-109820000D01*
X176344953Y-109820000D01*
X176413106Y-109984943D01*
X176872637Y-110445278D01*
X177473352Y-110694716D01*
X178123795Y-110695284D01*
X178724943Y-110446894D01*
X179185278Y-109987363D01*
X179434716Y-109386648D01*
X179435284Y-108736205D01*
X179186894Y-108135057D01*
X178727363Y-107674722D01*
X178126648Y-107425284D01*
X177476205Y-107424716D01*
X176875057Y-107673106D01*
X176414722Y-108132637D01*
X176345227Y-108300000D01*
X175420000Y-108300000D01*
X175129161Y-108357852D01*
X174882599Y-108522599D01*
X166985001Y-116420197D01*
X166985001Y-107409999D01*
X166927149Y-107119160D01*
X166762402Y-106872598D01*
X165977402Y-106087598D01*
X165730840Y-105922851D01*
X165440001Y-105864999D01*
X150493999Y-105864999D01*
X150203160Y-105922851D01*
X149956598Y-106087598D01*
X149267598Y-106776598D01*
X149102851Y-107023160D01*
X149044999Y-107313999D01*
X146760000Y-107313999D01*
X146760000Y-100773795D01*
X149494716Y-100773795D01*
X149743106Y-101374943D01*
X150202637Y-101835278D01*
X150803352Y-102084716D01*
X151453795Y-102085284D01*
X152054943Y-101836894D01*
X152515278Y-101377363D01*
X152764716Y-100776648D01*
X152765284Y-100126205D01*
X152516894Y-99525057D01*
X152375879Y-99383795D01*
X176164716Y-99383795D01*
X176413106Y-99984943D01*
X176872637Y-100445278D01*
X177473352Y-100694716D01*
X178123795Y-100695284D01*
X178724943Y-100446894D01*
X179185278Y-99987363D01*
X179434716Y-99386648D01*
X179435284Y-98736205D01*
X179186894Y-98135057D01*
X178727363Y-97674722D01*
X178126648Y-97425284D01*
X177476205Y-97424716D01*
X176875057Y-97673106D01*
X176414722Y-98132637D01*
X176165284Y-98733352D01*
X176164716Y-99383795D01*
X152375879Y-99383795D01*
X152057363Y-99064722D01*
X151456648Y-98815284D01*
X150806205Y-98814716D01*
X150205057Y-99063106D01*
X149744722Y-99522637D01*
X149495284Y-100123352D01*
X149494716Y-100773795D01*
X146760000Y-100773795D01*
X146760000Y-95960000D01*
X182170000Y-95960000D01*
X182170000Y-144070000D01*
M02*
